<svg xmlns="http://www.w3.org/2000/svg" width="50" height="50" viewBox="0 0 50 50">
  <path id="Icon_awesome-twitter" data-name="Icon awesome-twitter" d="M44.861,15.842c.032.547.032,1.094.032,1.641,0,16.68-10.311,35.9-29.156,35.9A25.179,25.179,0,0,1,0,47.717a17.26,17.26,0,0,0,2.475.156A18.237,18.237,0,0,0,15.2,42.482c-4.505-.117-8.281-3.75-9.581-8.75a10.558,10.558,0,0,0,1.935.2,8.933,8.933,0,0,0,2.7-.43c-4.7-1.172-8.217-6.25-8.217-12.383v-.156a8.913,8.913,0,0,0,4.632,1.6A13.574,13.574,0,0,1,2.094,12.053a14.8,14.8,0,0,1,1.4-6.367c5.044,7.656,12.627,12.656,21.129,13.2A17.418,17.418,0,0,1,24.365,16c0-6.953,4.569-12.617,10.248-12.617A9.45,9.45,0,0,1,42.1,7.365a18.061,18.061,0,0,0,6.5-3.047A12.456,12.456,0,0,1,44.1,11.271,17.6,17.6,0,0,0,50,9.318a25.464,25.464,0,0,1-5.139,6.523Z" transform="translate(0 -3.381)" fill="#303c6c"/>
</svg>
